<svg xmlns="http://www.w3.org/2000/svg" xmlns:xlink="http://www.w3.org/1999/xlink" width="1366" zoomAndPan="magnify" viewBox="0 0 1024.5 576" height="768" preserveAspectRatio="xMidYMid meet" version="1.0"><defs><clipPath id="62aea8b974"><path d="M 0 0.140625 L 1024 0.140625 L 1024 575.859375 L 0 575.859375 Z M 0 0.140625 " clip-rule="nonzero"/></clipPath><clipPath id="d1ea4732ce"><path d="M 0 404 L 164 404 L 164 575.859375 L 0 575.859375 Z M 0 404 " clip-rule="nonzero"/></clipPath><clipPath id="8e4da2bb46"><path d="M 119.890625 325.300781 L 205.527344 558.984375 L -4.925781 636.105469 L -90.5625 402.425781 Z M 119.890625 325.300781 " clip-rule="nonzero"/></clipPath><clipPath id="23113049e9"><path d="M 119.890625 325.300781 L 205.527344 558.984375 L 18.300781 627.59375 L -67.335938 393.914062 Z M 119.890625 325.300781 " clip-rule="nonzero"/></clipPath><clipPath id="57be22caa6"><path d="M 119.890625 325.300781 L 205.527344 558.984375 L -4.925781 636.105469 L -90.5625 402.425781 Z M 119.890625 325.300781 " clip-rule="nonzero"/></clipPath><clipPath id="3b61391e20"><path d="M 0 392 L 159 392 L 159 575.859375 L 0 575.859375 Z M 0 392 " clip-rule="nonzero"/></clipPath><clipPath id="b48003bd97"><path d="M 119.890625 325.300781 L 205.527344 558.984375 L -4.925781 636.105469 L -90.5625 402.425781 Z M 119.890625 325.300781 " clip-rule="nonzero"/></clipPath><clipPath id="959b4dd070"><path d="M 119.890625 325.300781 L 205.527344 558.984375 L 18.300781 627.59375 L -67.335938 393.914062 Z M 119.890625 325.300781 " clip-rule="nonzero"/></clipPath><clipPath id="a993133cb1"><path d="M 119.890625 325.300781 L 205.527344 558.984375 L -4.925781 636.105469 L -90.5625 402.425781 Z M 119.890625 325.300781 " clip-rule="nonzero"/></clipPath><clipPath id="ab35144543"><path d="M 0 379 L 154 379 L 154 575.859375 L 0 575.859375 Z M 0 379 " clip-rule="nonzero"/></clipPath><clipPath id="09143267c5"><path d="M 119.890625 325.300781 L 205.527344 558.984375 L -4.925781 636.105469 L -90.5625 402.425781 Z M 119.890625 325.300781 " clip-rule="nonzero"/></clipPath><clipPath id="7870dbaada"><path d="M 119.890625 325.300781 L 205.527344 558.984375 L 18.300781 627.59375 L -67.335938 393.914062 Z M 119.890625 325.300781 " clip-rule="nonzero"/></clipPath><clipPath id="e4d0f9f230"><path d="M 119.890625 325.300781 L 205.527344 558.984375 L -4.925781 636.105469 L -90.5625 402.425781 Z M 119.890625 325.300781 " clip-rule="nonzero"/></clipPath><clipPath id="4e003fe3b7"><path d="M 810 0.140625 L 1024 0.140625 L 1024 291 L 810 291 Z M 810 0.140625 " clip-rule="nonzero"/></clipPath><clipPath id="a2f1705d2f"><path d="M 1059.839844 308.398438 L 760.746094 165.824219 L 873.324219 -70.339844 L 1172.417969 72.234375 Z M 1059.839844 308.398438 " clip-rule="nonzero"/></clipPath><clipPath id="0556e873b1"><path d="M 873.011719 -70.476562 L 1172.105469 72.101562 L 1059.53125 308.261719 L 760.433594 165.6875 Z M 873.011719 -70.476562 " clip-rule="nonzero"/></clipPath><clipPath id="cf41e838a4"><path d="M 873.011719 -70.476562 L 1172.105469 72.101562 L 1059.53125 308.261719 L 760.433594 165.6875 Z M 873.011719 -70.476562 " clip-rule="nonzero"/></clipPath><clipPath id="84f3559a0d"><path d="M 822 0.140625 L 1024 0.140625 L 1024 290 L 822 290 Z M 822 0.140625 " clip-rule="nonzero"/></clipPath><clipPath id="4d4153a4af"><path d="M 1059.839844 308.398438 L 760.746094 165.824219 L 873.324219 -70.339844 L 1172.417969 72.234375 Z M 1059.839844 308.398438 " clip-rule="nonzero"/></clipPath><clipPath id="0b620ca9b2"><path d="M 873.011719 -70.476562 L 1172.105469 72.101562 L 1059.53125 308.261719 L 760.433594 165.6875 Z M 873.011719 -70.476562 " clip-rule="nonzero"/></clipPath><clipPath id="f9d9991e8e"><path d="M 873.011719 -70.476562 L 1172.105469 72.101562 L 1059.53125 308.261719 L 760.433594 165.6875 Z M 873.011719 -70.476562 " clip-rule="nonzero"/></clipPath><clipPath id="ee8754f2b6"><path d="M 838 0.140625 L 1024 0.140625 L 1024 292 L 838 292 Z M 838 0.140625 " clip-rule="nonzero"/></clipPath><clipPath id="e2b7bbaa8b"><path d="M 1059.839844 308.398438 L 760.746094 165.824219 L 873.324219 -70.339844 L 1172.417969 72.234375 Z M 1059.839844 308.398438 " clip-rule="nonzero"/></clipPath><clipPath id="678138583c"><path d="M 873.011719 -70.476562 L 1172.105469 72.101562 L 1059.53125 308.261719 L 760.433594 165.6875 Z M 873.011719 -70.476562 " clip-rule="nonzero"/></clipPath><clipPath id="9c10820d53"><path d="M 873.011719 -70.476562 L 1172.105469 72.101562 L 1059.53125 308.261719 L 760.433594 165.6875 Z M 873.011719 -70.476562 " clip-rule="nonzero"/></clipPath></defs><g clip-path="url(#62aea8b974)"><path fill="#ffffff" d="M 0 0.140625 L 1024 0.140625 L 1024 575.859375 L 0 575.859375 Z M 0 0.140625 " fill-opacity="1" fill-rule="nonzero"/><path fill="#ffffff" d="M 0 0.140625 L 1024 0.140625 L 1024 575.859375 L 0 575.859375 Z M 0 0.140625 " fill-opacity="1" fill-rule="nonzero"/></g><g clip-path="url(#d1ea4732ce)"><g clip-path="url(#8e4da2bb46)"><g clip-path="url(#23113049e9)"><g clip-path="url(#57be22caa6)"><path fill="#3d0b37" d="M -4.414062 635.851562 C 11.976562 629.503906 26.628906 618.011719 39.148438 601.71875 C 49.203125 588.625 57.988281 572.277344 65.242188 553.121094 C 69.15625 542.796875 72.589844 532.171875 75.917969 521.894531 C 79.746094 510.078125 83.464844 498.578125 87.8125 487.574219 C 96.734375 490.0625 105.328125 491.203125 113.757812 491.058594 C 121.644531 490.921875 129.355469 489.457031 136.058594 486.820312 C 143.953125 483.722656 150.398438 479.125 155.183594 473.15625 C 160.390625 466.675781 163.296875 458.046875 163.148438 449.476562 C 163.070312 445.066406 162.214844 440.867188 160.597656 437.019531 C 159.785156 435.085938 158.78125 433.277344 157.617188 431.601562 C 156.277344 429.679688 154.707031 427.933594 152.914062 426.402344 C 152.871094 426.359375 152.828125 426.328125 152.785156 426.285156 C 148.398438 422.566406 142.953125 420.226562 136.886719 419.429688 C 135.785156 419.289062 134.648438 419.183594 133.511719 419.144531 C 126.96875 418.910156 120.089844 420.464844 114.160156 423.511719 C 103.132812 429.179688 95.589844 438.898438 90.625 446.519531 C 90.125 447.296875 89.640625 448.035156 89.195312 448.761719 C 86.675781 452.792969 84.351562 456.914062 82.199219 461.105469 C 81.109375 463.21875 80.058594 465.367188 79.054688 467.507812 C 77.859375 467 76.675781 466.472656 75.5 465.925781 C 70.761719 463.742188 66.019531 461.234375 61.234375 458.472656 C 53.675781 454.128906 46.03125 449.191406 38.164062 443.964844 L -20.664062 404.960938 C -19.628906 408.726562 -18.585938 412.53125 -17.558594 416.269531 C -16.402344 420.476562 -15.277344 424.589844 -14.238281 428.398438 L 29.332031 457.277344 C 38.132812 463.109375 46.824219 468.769531 55.796875 473.78125 C 58.535156 475.308594 61.277344 476.777344 64.082031 478.160156 C 65.546875 478.894531 67.023438 479.613281 68.519531 480.292969 C 69.089844 480.558594 69.65625 480.808594 70.207031 481.066406 C 71.058594 481.449219 71.917969 481.8125 72.765625 482.183594 C 68.242188 493.679688 64.453125 505.398438 60.714844 516.933594 C 57.4375 527.027344 54.070312 537.464844 50.296875 547.414062 C 35.53125 586.351562 15.1875 611.074219 -10.183594 620.90625 Z M 100.273438 461.375 C 101.082031 459.984375 101.914062 458.613281 102.761719 457.253906 C 105.273438 453.242188 107.730469 449.839844 110.210938 446.992188 C 113.875 442.777344 117.570312 439.765625 121.492188 437.738281 C 125.238281 435.804688 129.320312 434.945312 133.074219 435.121094 C 136.457031 435.273438 139.578125 436.273438 141.96875 438.105469 C 142.136719 438.238281 142.300781 438.367188 142.46875 438.5 C 144.316406 440.070312 145.457031 442.007812 146.148438 443.898438 C 146.183594 443.988281 146.214844 444.082031 146.25 444.171875 C 146.980469 446.285156 147.167969 448.332031 147.199219 449.757812 C 147.28125 454.582031 145.621094 459.585938 142.75 463.152344 C 136.832031 470.511719 126.179688 474.859375 113.511719 475.078125 C 106.996094 475.1875 100.601562 474.351562 94.257812 472.753906 C 95.777344 469.59375 97.382812 466.488281 99.089844 463.4375 C 99.488281 462.742188 99.871094 462.054688 100.273438 461.375 Z M 100.273438 461.375 " fill-opacity="1" fill-rule="nonzero"/></g></g></g></g><g clip-path="url(#3b61391e20)"><g clip-path="url(#b48003bd97)"><g clip-path="url(#959b4dd070)"><g clip-path="url(#a993133cb1)"><path fill="#db5461" d="M 33.972656 588.359375 C 44.023438 575.265625 52.804688 558.90625 60.0625 539.765625 C 63.984375 529.449219 67.414062 518.8125 70.742188 508.539062 C 74.566406 496.71875 78.289062 485.21875 82.652344 474.210938 C 91.566406 476.683594 100.164062 477.839844 108.59375 477.695312 C 116.464844 477.5625 124.191406 476.09375 130.898438 473.472656 C 138.792969 470.371094 145.238281 465.777344 150.039062 459.800781 C 155.242188 453.320312 158.148438 444.679688 158.003906 436.121094 C 157.976562 434.59375 157.851562 433.085938 157.640625 431.621094 C 157.230469 428.84375 156.511719 426.191406 155.441406 423.683594 C 154.746094 422.03125 153.910156 420.472656 152.960938 419.015625 C 151.480469 416.746094 149.695312 414.707031 147.617188 412.953125 C 142.421875 408.554688 135.757812 406.085938 128.34375 405.8125 C 121.800781 405.578125 114.925781 407.132812 108.992188 410.179688 C 96.863281 416.433594 88.925781 427.582031 84.027344 435.429688 C 80.226562 441.496094 76.886719 447.78125 73.878906 454.195312 C 60.484375 448.464844 47.09375 440.011719 32.992188 430.664062 L -24.003906 392.867188 C -23.121094 396.082031 -22.183594 399.453125 -21.242188 402.910156 C -21.042969 403.605469 -20.855469 404.320312 -20.660156 405.019531 C -19.621094 408.78125 -18.582031 412.589844 -17.554688 416.324219 L 24.144531 443.96875 C 35.625 451.582031 46.957031 458.910156 58.898438 464.863281 C 60.363281 465.597656 61.835938 466.300781 63.316406 466.988281 C 64.742188 467.648438 66.160156 468.285156 67.5625 468.878906 C 66.34375 471.976562 65.179688 475.09375 64.054688 478.214844 C 61.007812 486.667969 58.242188 495.199219 55.519531 503.609375 C 52.246094 513.703125 48.875 524.140625 45.105469 534.089844 C 30.453125 572.738281 10.292969 597.394531 -14.820312 607.367188 C -15.003906 607.433594 -15.195312 607.515625 -15.378906 607.585938 L -10.203125 620.941406 L -9.613281 622.472656 C 6.796875 616.132812 21.464844 604.648438 33.972656 588.359375 Z M 97.578125 443.882812 C 103.789062 433.957031 109.734375 427.753906 116.3125 424.382812 C 123.539062 420.667969 131.988281 420.886719 137.015625 424.917969 C 137.101562 424.988281 137.203125 425.058594 137.285156 425.128906 C 139.136719 426.699219 140.273438 428.636719 140.96875 430.527344 C 141.78125 432.746094 141.992188 434.902344 142.019531 436.386719 C 142.035156 436.957031 142.007812 437.527344 141.976562 438.089844 C 141.695312 442.363281 140.101562 446.632812 137.570312 449.78125 C 131.652344 457.140625 121 461.488281 108.332031 461.707031 C 105.625 461.753906 102.945312 461.640625 100.273438 461.375 C 96.511719 461.007812 92.785156 460.332031 89.082031 459.394531 C 91.082031 455.246094 93.234375 451.171875 95.566406 447.195312 C 96.222656 446.082031 96.898438 444.976562 97.578125 443.882812 Z M 97.578125 443.882812 " fill-opacity="1" fill-rule="nonzero"/></g></g></g></g><g clip-path="url(#ab35144543)"><g clip-path="url(#09143267c5)"><g clip-path="url(#7870dbaada)"><g clip-path="url(#e4d0f9f230)"><path fill="#eddea4" d="M 29.109375 574.160156 C 39.160156 561.066406 47.945312 544.710938 55.203125 525.566406 C 59.121094 515.253906 62.550781 504.613281 65.878906 494.339844 C 67.328125 489.886719 68.746094 485.476562 70.199219 481.125 C 71.914062 475.984375 73.664062 470.9375 75.5 465.972656 C 76.246094 463.964844 77 461.988281 77.773438 460.019531 C 79.261719 460.433594 80.746094 460.808594 82.203125 461.148438 C 87.945312 462.476562 93.554688 463.246094 99.09375 463.449219 C 100.640625 463.503906 102.1875 463.53125 103.730469 463.496094 C 111.617188 463.359375 119.328125 461.894531 126.035156 459.273438 C 133.933594 456.171875 140.375 451.578125 145.160156 445.605469 C 145.527344 445.148438 145.898438 444.671875 146.242188 444.191406 C 149.910156 439.085938 152.242188 432.847656 152.929688 426.441406 C 153.089844 424.945312 153.160156 423.441406 153.132812 421.941406 C 153.109375 420.957031 153.066406 419.984375 152.964844 419.027344 C 152.640625 415.671875 151.84375 412.484375 150.570312 409.503906 C 148.78125 405.261719 146.15625 401.652344 142.761719 398.78125 C 137.566406 394.382812 130.902344 391.914062 123.488281 391.640625 C 116.949219 391.40625 110.070312 392.960938 104.140625 396.007812 C 92.007812 402.257812 84.074219 413.410156 79.175781 421.257812 C 75.375 427.324219 72.035156 433.609375 69.027344 440.023438 C 55.628906 434.292969 42.226562 425.84375 28.140625 416.492188 L -27.714844 379.460938 C -26.660156 383.234375 -25.386719 387.839844 -23.988281 392.90625 C -23.105469 396.121094 -22.167969 399.492188 -21.226562 402.949219 L 19.300781 429.824219 C 32.191406 438.371094 44.890625 446.558594 58.472656 452.84375 C 59.902344 453.503906 61.316406 454.136719 62.71875 454.734375 C 62.226562 456.011719 61.730469 457.285156 61.234375 458.5625 C 60.441406 460.675781 59.664062 462.792969 58.898438 464.910156 C 57.828125 467.890625 56.796875 470.886719 55.789062 473.875 C 54.027344 479.09375 52.339844 484.300781 50.664062 489.46875 C 47.390625 499.5625 44.019531 510 40.246094 519.949219 C 25.484375 558.890625 5.136719 583.613281 -20.234375 593.441406 L -14.816406 607.421875 L -14.464844 608.34375 C 1.933594 601.9375 16.589844 590.453125 29.109375 574.160156 Z M 132.425781 410.929688 C 134.273438 412.503906 135.414062 414.4375 136.105469 416.328125 C 136.496094 417.398438 136.753906 418.460938 136.90625 419.4375 C 137.074219 420.472656 137.128906 421.429688 137.140625 422.179688 C 137.15625 423.074219 137.109375 423.996094 137.007812 424.890625 C 136.582031 428.613281 135.179688 432.265625 133.0625 435.097656 C 132.945312 435.257812 132.820312 435.40625 132.703125 435.566406 C 127.875 441.585938 119.878906 445.582031 110.210938 446.960938 C 108.042969 447.269531 105.789062 447.457031 103.464844 447.496094 C 100.8125 447.535156 98.183594 447.433594 95.574219 447.175781 C 93.917969 447.015625 92.28125 446.800781 90.636719 446.515625 C 88.496094 446.160156 86.34375 445.707031 84.222656 445.167969 C 86.773438 439.851562 89.574219 434.683594 92.722656 429.652344 C 98.929688 419.726562 104.875 413.527344 111.453125 410.152344 C 118.800781 406.394531 127.421875 406.695312 132.425781 410.929688 Z M 132.425781 410.929688 " fill-opacity="1" fill-rule="nonzero"/></g></g></g></g><g clip-path="url(#4e003fe3b7)"><g clip-path="url(#a2f1705d2f)"><g clip-path="url(#0556e873b1)"><g clip-path="url(#cf41e838a4)"><path fill="#3d0b37" d="M 1040.921875 288.351562 L 1035.265625 289.070312 L 1033.164062 289.339844 L 1022.640625 290.675781 C 1020.816406 276.199219 1013.949219 261.625 1003.140625 248.773438 C 998.320312 243.023438 992.707031 237.613281 986.398438 232.703125 C 966.453125 217.160156 941.65625 207.5 920.023438 200.105469 C 914.3125 198.15625 908.457031 196.234375 902.785156 194.359375 C 884.070312 188.230469 864.722656 181.886719 846.4375 173.078125 C 839.371094 169.671875 833.941406 166.472656 829.386719 163.027344 C 823.027344 158.222656 818.386719 152.945312 815.175781 146.910156 C 813.609375 143.96875 812.402344 140.808594 811.574219 137.515625 C 810.226562 132.179688 809.859375 126.449219 810.519531 120.578125 C 810.929688 116.96875 811.703125 113.367188 812.832031 109.84375 C 814.359375 105.050781 816.554688 100.410156 819.3125 96.09375 C 828.792969 81.277344 843.375 71.5 855.003906 64.636719 C 874.238281 53.308594 894.867188 44.472656 916.347656 38.410156 C 917.90625 37.96875 919.476562 37.535156 921.003906 37.117188 C 929.140625 34.90625 936.820312 32.804688 943.191406 28.878906 C 945.859375 27.234375 948.726562 24.816406 950.878906 21.925781 C 953.042969 19.007812 954.484375 15.597656 954.269531 11.984375 C 953.714844 2.46875 941.828125 -4.636719 930.898438 -8.128906 C 923.660156 -10.4375 916.171875 -12.066406 908.617188 -13.007812 C 903.324219 -13.667969 897.984375 -13.996094 892.644531 -13.976562 C 889.65625 -13.976562 886.671875 -13.867188 883.703125 -13.640625 C 878.90625 -13.285156 874.125 -12.664062 869.421875 -11.769531 C 865.34375 -11 861.304688 -10.027344 857.339844 -8.832031 L 852.0625 -26.507812 C 864.855469 -30.324219 878.175781 -32.304688 891.679688 -32.421875 C 892.5625 -32.421875 893.449219 -32.425781 894.351562 -32.421875 C 899.21875 -32.371094 904.0625 -32.09375 908.878906 -31.550781 C 918.292969 -30.519531 927.542969 -28.566406 936.503906 -25.695312 C 942.78125 -23.699219 951.835938 -19.976562 959.417969 -13.59375 C 961.824219 -11.558594 963.910156 -9.398438 965.679688 -7.117188 C 966.460938 -6.117188 967.171875 -5.09375 967.816406 -4.046875 C 970.523438 0.289062 972.136719 4.992188 972.578125 9.910156 C 972.605469 10.238281 972.636719 10.566406 972.65625 10.90625 C 973.050781 17.742188 971.09375 24.675781 966.984375 30.972656 C 966.824219 31.226562 966.660156 31.460938 966.484375 31.710938 C 963.023438 36.765625 958.324219 41.207031 952.8125 44.601562 C 944.195312 49.910156 934.851562 52.453125 925.816406 54.921875 C 924.332031 55.324219 922.804688 55.742188 921.316406 56.15625 C 901.359375 61.804688 882.195312 70.007812 864.324219 80.527344 C 861.371094 82.273438 858.195312 84.214844 855.007812 86.40625 C 847.550781 91.53125 839.964844 97.960938 834.796875 106.019531 C 827.988281 116.664062 826.664062 129.308594 831.417969 138.21875 C 834.503906 144.011719 839.96875 148.410156 845.964844 151.96875 C 848.738281 153.621094 851.632812 155.09375 854.421875 156.441406 C 871.617188 164.714844 890.390625 170.875 908.527344 176.824219 C 914.25 178.703125 920.15625 180.632812 925.972656 182.628906 C 941.085938 187.800781 952.5 192.300781 962.957031 197.214844 C 976.386719 203.519531 987.753906 210.363281 997.707031 218.117188 C 1003.140625 222.347656 1008.238281 227.015625 1012.859375 231.949219 C 1017.84375 237.28125 1022.304688 242.933594 1026.054688 248.765625 C 1033.347656 260.089844 1038.117188 271.945312 1040.253906 284.097656 C 1040.527344 285.539062 1040.746094 286.9375 1040.921875 288.351562 Z M 1040.921875 288.351562 " fill-opacity="1" fill-rule="nonzero"/></g></g></g></g><g clip-path="url(#84f3559a0d)"><g clip-path="url(#4d4153a4af)"><g clip-path="url(#0b620ca9b2)"><g clip-path="url(#f9d9991e8e)"><path fill="#db5461" d="M 1053.675781 287.671875 L 1050.101562 288.128906 L 1045.917969 288.664062 L 1035.394531 290 C 1035.359375 289.6875 1035.316406 289.390625 1035.265625 289.070312 C 1033.277344 274.902344 1026.460938 260.683594 1015.898438 248.097656 C 1011.074219 242.34375 1005.449219 236.929688 999.152344 232.027344 C 979.210938 216.480469 954.414062 206.820312 932.777344 199.425781 C 927.066406 197.480469 921.214844 195.558594 915.539062 193.683594 C 896.828125 187.550781 877.476562 181.207031 859.191406 172.398438 C 852.125 168.992188 846.695312 165.796875 842.140625 162.351562 C 835.78125 157.546875 831.140625 152.269531 827.929688 146.234375 C 826.363281 143.289062 825.160156 140.128906 824.332031 136.835938 C 822.988281 131.488281 822.613281 125.769531 823.273438 119.898438 C 823.683594 116.289062 824.460938 112.691406 825.585938 109.164062 C 827.117188 104.371094 829.308594 99.730469 832.066406 95.414062 C 841.546875 80.601562 856.128906 70.824219 867.757812 63.957031 C 886.992188 52.628906 907.621094 43.792969 929.105469 37.730469 C 930.660156 37.289062 932.230469 36.859375 933.757812 36.441406 C 941.898438 34.226562 949.574219 32.125 955.945312 28.203125 C 958.613281 26.554688 961.480469 24.136719 963.632812 21.25 C 965.796875 18.328125 967.242188 14.917969 967.023438 11.308594 C 966.46875 1.792969 954.585938 -5.316406 943.652344 -8.808594 C 936.625 -11.050781 929.398438 -12.648438 922.050781 -13.601562 C 912.308594 -14.867188 902.40625 -14.992188 892.628906 -13.984375 C 889.640625 -13.984375 886.65625 -13.875 883.6875 -13.648438 C 878.890625 -13.292969 874.113281 -12.671875 869.40625 -11.777344 L 864.839844 -27.195312 C 873.585938 -29.800781 882.578125 -31.550781 891.699219 -32.429688 C 896.808594 -32.929688 901.953125 -33.15625 907.121094 -33.089844 C 912.578125 -33.039062 918 -32.6875 923.367188 -32.03125 C 932.183594 -30.949219 940.859375 -29.066406 949.273438 -26.367188 C 955.546875 -24.355469 964.605469 -20.644531 972.1875 -14.261719 C 974.601562 -12.246094 976.679688 -10.070312 978.449219 -7.785156 C 982.464844 -2.625 984.804688 3.144531 985.363281 9.246094 C 985.394531 9.574219 985.421875 9.902344 985.441406 10.246094 C 985.835938 17.078125 983.878906 24.011719 979.769531 30.308594 C 976.277344 35.660156 971.375 40.375 965.605469 43.921875 C 956.988281 49.230469 947.640625 51.773438 938.605469 54.246094 C 937.125 54.644531 935.597656 55.0625 934.109375 55.480469 C 914.152344 61.125 894.988281 69.328125 877.117188 79.847656 C 867.242188 85.664062 854.960938 93.824219 847.589844 105.34375 C 840.78125 115.984375 839.457031 128.628906 844.210938 137.542969 C 848.722656 146.027344 858.375 151.511719 867.214844 155.761719 C 884.410156 164.035156 903.183594 170.195312 921.316406 176.144531 C 927.042969 178.023438 932.949219 179.953125 938.765625 181.949219 C 953.878906 187.125 965.292969 191.621094 975.75 196.535156 C 989.179688 202.84375 1000.546875 209.683594 1010.5 217.4375 C 1021.796875 226.238281 1031.609375 236.84375 1038.855469 248.109375 C 1046.148438 259.433594 1050.917969 271.289062 1053.054688 283.441406 C 1053.28125 284.863281 1053.496094 286.273438 1053.675781 287.671875 Z M 1053.675781 287.671875 " fill-opacity="1" fill-rule="nonzero"/></g></g></g></g><g clip-path="url(#ee8754f2b6)"><g clip-path="url(#e2b7bbaa8b)"><g clip-path="url(#678138583c)"><g clip-path="url(#9c10820d53)"><path fill="#eddea4" d="M 1068.832031 288.730469 L 1061.082031 289.707031 L 1050.542969 291.035156 C 1050.414062 290.066406 1050.269531 289.09375 1050.109375 288.113281 C 1047.789062 274.597656 1041.136719 261.125 1031.046875 249.132812 C 1026.222656 243.378906 1020.613281 237.972656 1014.300781 233.0625 C 1013.832031 232.691406 1013.355469 232.335938 1012.882812 231.980469 C 993.1875 217.070312 969.050781 207.6875 947.941406 200.46875 C 942.230469 198.519531 936.375 196.597656 930.703125 194.726562 C 911.988281 188.59375 892.640625 182.25 874.355469 173.441406 C 867.273438 170.027344 861.859375 166.839844 857.304688 163.394531 C 852.652344 159.882812 848.917969 156.109375 845.980469 151.976562 C 844.910156 150.46875 843.941406 148.898438 843.085938 147.289062 C 841.519531 144.347656 840.316406 141.1875 839.488281 137.894531 C 838.136719 132.558594 837.769531 126.828125 838.429688 120.957031 C 838.839844 117.347656 839.617188 113.746094 840.742188 110.222656 C 842.269531 105.429688 844.464844 100.789062 847.222656 96.472656 C 849.554688 92.820312 852.199219 89.480469 855.046875 86.40625 C 863.707031 77.019531 874.152344 70.199219 882.929688 65.023438 C 902.148438 53.6875 922.792969 44.859375 944.273438 38.796875 C 945.832031 38.355469 947.402344 37.921875 948.929688 37.503906 C 955.183594 35.796875 961.1875 34.152344 966.523438 31.710938 C 968.125 30.980469 969.652344 30.175781 971.117188 29.265625 C 973.785156 27.621094 976.652344 25.203125 978.804688 22.3125 C 980.96875 19.394531 982.410156 15.984375 982.195312 12.371094 C 981.800781 5.5 975.46875 -0.140625 967.84375 -4.035156 C 964.941406 -5.527344 961.84375 -6.765625 958.816406 -7.730469 C 946.984375 -11.503906 934.539062 -13.449219 922.074219 -13.574219 C 917.574219 -13.613281 913.09375 -13.421875 908.625 -12.988281 C 903.332031 -13.644531 897.992188 -13.976562 892.652344 -13.953125 C 889.664062 -13.957031 886.679688 -13.847656 883.710938 -13.617188 L 879.972656 -26.128906 C 889.367188 -28.925781 899.046875 -30.738281 908.863281 -31.558594 C 913.296875 -31.921875 917.769531 -32.097656 922.25 -32.046875 C 922.613281 -32.039062 922.980469 -32.03125 923.34375 -32.023438 C 937.398438 -31.789062 951.191406 -29.535156 964.398438 -25.324219 C 970.679688 -23.328125 979.730469 -19.601562 987.3125 -13.21875 C 989.71875 -11.1875 991.808594 -9.027344 993.578125 -6.742188 C 997.589844 -1.582031 999.929688 4.1875 1000.492188 10.289062 C 1000.519531 10.617188 1000.546875 10.945312 1000.566406 11.289062 C 1000.960938 18.121094 999.003906 25.054688 994.894531 31.351562 C 991.402344 36.703125 986.5 41.417969 980.734375 44.964844 C 972.113281 50.273438 962.769531 52.816406 953.734375 55.289062 C 952.25 55.6875 950.722656 56.105469 949.234375 56.523438 C 929.277344 62.167969 910.097656 70.363281 892.242188 80.890625 C 882.367188 86.707031 870.101562 94.875 862.714844 106.386719 C 855.90625 117.027344 854.570312 129.664062 859.335938 138.585938 C 863.855469 147.054688 873.5 152.554688 882.339844 156.804688 C 899.535156 165.078125 918.308594 171.238281 936.445312 177.1875 C 942.171875 179.066406 948.074219 180.996094 953.890625 182.992188 C 969.003906 188.167969 980.417969 192.664062 990.878906 197.578125 C 1004.304688 203.886719 1015.671875 210.726562 1025.625 218.480469 C 1036.921875 227.28125 1046.734375 237.886719 1053.980469 249.152344 C 1061.273438 260.476562 1066.042969 272.332031 1068.179688 284.484375 C 1068.4375 285.917969 1068.65625 287.316406 1068.832031 288.730469 Z M 1068.832031 288.730469 " fill-opacity="1" fill-rule="nonzero"/></g></g></g></g></svg>